<?xml version="1.0" encoding="utf-8"?>
<!-- Generator: Adobe Illustrator 27.5.0, SVG Export Plug-In . SVG Version: 6.00 Build 0)  -->
<svg version="1.1" xmlns="http://www.w3.org/2000/svg" xmlns:xlink="http://www.w3.org/1999/xlink" x="0px" y="0px"
	 viewBox="0 0 500 500" style="enable-background:new 0 0 500 500;" xml:space="preserve">
<g id="BACKGROUND">
	<polygon style="fill:#FFF9DE;" points="0,0 0,124.501 0,235.856 0,402.725 0,500 147.35,500 500,500 500,232.207 500,140.873 
		500,81.61 500,12.454 500,0 	"/>
</g>
<g id="OBJECTS">
	<g>
		<path style="fill:#A2E567;" d="M235.435,309.597c-1.126-0.703-2.392-1.548-3.799-1.829c-0.703-0.141-1.407,0.141-2.11,0
			c-0.281-0.141-0.422-0.422-0.563-0.563c-1.125,0-2.392,0.281-3.376,0.281c-1.829,0.141-3.939,0.281-5.205-0.563
			c-1.829-1.266-2.392-3.658-3.658-5.628c-2.251-3.658-7.175-1.407-10.27-0.141c-0.281,0.141-0.703-0.141-1.126,0
			c-1.829,0.704-3.517,2.11-5.487,2.251c-0.703,0-1.126,0.703-1.688,0.844c-1.321,0.264-2.256,0.914-3.185,1.502
			c13.643,13.187,32.335,23.356,54.9,23.946C247.605,321.438,242.851,314.187,235.435,309.597z"/>
		<path style="fill:#19B29E;" d="M278.345,301.718c-0.141,0-0.563,0-0.563,0c-0.141-1.97,0.704-4.924-0.281-5.628
			c-3.658-2.673-6.753-5.205-9.285-9.145c-0.281-0.422-1.688-0.281-2.532,0c-0.703,0.141-1.407,0.563-2.11,0.422
			c0.281,0.703-0.844,0.985-0.563,1.688c-0.422,0-0.844-0.141-1.125,0c0,0.141,0,0.422,0,0.563c-0.141,0-0.422,0-0.563,0
			c0-0.141,0-0.422,0-0.563c-0.563-0.141-1.125,0.141-1.688,0c-1.829-0.844-3.376-2.251-5.487-1.688c0,0.141,0,0.422,0,0.563
			c-0.281,0.141-0.844-0.141-1.125,0c0,0.141,0,0.422,0,0.563c-3.376-0.141-6.753,0.422-9.848-1.126
			c-0.281-0.141-0.844,0.141-0.985,0c-0.985-1.125-2.11-1.97-3.376-1.407c-1.97,0.985-3.939,0.844-6.05,0.844
			c0-0.141,0-0.422,0-0.563c-3.376,0.281-4.783-2.673-6.472-5.065c-1.97-3.095-4.502-5.487-5.909-8.723
			c-0.844-1.688-0.422-3.939-0.985-5.909c-0.141-0.703-0.141-1.97-1.407-2.251c-0.422-0.141-0.844-0.141-0.985-0.422
			c-0.563-0.985-1.126-1.407-1.829-1.688c0-0.141,0-0.422,0-0.563c-1.407-1.125-2.673-2.673-2.954-4.361
			c-0.703-3.517-3.939-5.205-6.894-6.049c0,0.422,0.141,0.844,0,1.126c-0.141,0-0.563,0-0.563,0c-0.141,1.407-0.141,2.954,0,4.361
			c0.141,0.141,0.422,0.281,0.563,0.563c0.141,0.985,0.281,1.829,0.422,2.673c0.422,3.236,1.407,6.19,1.829,9.426
			c1.126-0.141,1.407,1.266,2.11,1.407c1.126,0.141,1.829,0.422,2.814,0.703c-0.141,0-0.422,0-0.563,0c0,0.141,0,0.422,0,0.563
			c-0.141,0-0.422,0-0.563,0c-0.141,0.563,0,1.266-0.422,1.829c-0.281,0.281,0,0.985-0.141,1.407c-0.141,0-0.422,0-0.563,0
			c0.141,1.266-0.422,2.11-1.126,2.673c-0.422,0.281-1.125,0.281-1.548,0.141c-2.11-0.985-3.939-2.392-5.205-3.939
			c-1.125-1.266-2.251-1.407-3.236-2.673c-0.141-0.141-0.704,0.141-0.985,0c0-0.141,0-0.422,0-0.563
			c-1.266,0.281-1.829-1.125-2.11-2.11c-0.141,0-0.422,0-0.563,0c-0.141-0.563-0.141-1.266,0.141-1.688
			c0.563-1.126,0.281-2.11,0.422-3.236c0.141-0.281,0.422-0.422,0.563-0.563c0.141-0.985,0.141-1.829,0-2.814
			c-0.141-0.141-0.422-0.281-0.563-0.563c-0.141-0.703,0.281-1.548-0.141-1.97c-0.563-0.844-0.281-1.266-0.422-1.829
			c-0.141,0-0.422,0-0.563,0c0-0.141,0-0.422,0-0.563c-0.141,0-0.422,0-0.563,0c0-0.141,0-0.422,0-0.563c-0.141,0-0.422,0-0.563,0
			c-0.281-1.407-1.266-1.688-1.97-2.814c-0.422-0.422,0-1.407-0.141-2.11c-0.141,0-0.563,0-0.563,0
			c-0.141-2.11-1.126-4.221-2.814-5.487c-0.281-0.141-0.704,0.141-0.985,0c0-0.141,0-0.422,0-0.563
			c-0.563-0.141-1.126,0.141-1.688,0c0-0.141,0-0.422,0-0.563c-0.281-0.141-0.844,0.141-1.126,0
			c-0.844-0.422-0.422-1.829-1.688-1.548c0-0.563-0.141-1.266-0.281-1.688c-0.703-2.251-0.141-4.783-0.281-7.175
			c0,0-0.281,0-0.422,0c0-0.141,0-0.422,0-0.563c-0.141,0-0.422,0-0.563,0c0-0.141,0-0.422,0-0.563c-0.141,0-0.422,0-0.563,0
			c-0.141-0.422,0.141-1.126-0.141-1.407c-0.563-0.844-0.281-1.266-0.422-1.829c-0.141,0-0.422,0-0.563,0c0-0.141,0-0.422,0-0.563
			c-0.281-0.422-0.563-0.704-1.126-0.563c0-0.141,0-0.422,0-0.563c-0.141,0-0.422,0-0.563,0c0-0.141,0-0.422,0-0.563
			c-0.281-0.141-0.985,0.141-0.985,0c-0.703-1.126-1.97-1.407-2.392-1.97c-0.337-0.306-0.701-0.546-1.087-0.732
			c-2.082,9.302-3.35,20.357-3.735,32.384c-0.421,13.145,8.704,33.605,25.272,49.619c0.929-0.587,1.864-1.238,3.185-1.502
			c0.563-0.141,0.985-0.844,1.688-0.844c1.97-0.141,3.658-1.547,5.487-2.251c0.422-0.141,0.844,0.141,1.126,0
			c3.095-1.266,8.019-3.517,10.27,0.141c1.266,1.97,1.829,4.361,3.658,5.628c1.266,0.844,3.376,0.703,5.205,0.563
			c0.985,0,2.251-0.281,3.376-0.281c0.141,0.141,0.281,0.422,0.563,0.563c0.703,0.141,1.407-0.141,2.11,0
			c1.407,0.281,2.673,1.126,3.799,1.829c7.415,4.59,12.17,11.841,14.433,20.102c7.465,0.195,15.354-0.656,23.625-2.796
			c1.432-0.371,2.828-0.767,4.193-1.184c-0.442-1.101-0.856-2.22-1.31-3.319c-0.703-1.688-0.703-4.08,0-5.768
			c0.281-1.125-0.141-1.688,0.281-2.392c0.141,0,0.422,0,0.563,0c-0.141-0.844,0.141-1.97-0.422-2.814
			c-0.422-0.844-0.422-2.251,0-3.095c0.704-1.266,0-1.97,0.422-2.814c0.141,0,0.422,0,0.563,0c0.141-0.563,0-1.126,0.422-1.829
			C278.626,303.266,278.485,302.422,278.345,301.718z"/>
		<path style="fill:#A2E567;" d="M317.174,294.825c-1.125-0.563-1.97-1.829-3.236-1.97c-0.704,0-1.407-0.281-2.11-0.422
			c-3.517-0.422-7.034-0.704-10.27,0.141c-1.97,0.563-3.939,1.548-5.768,2.954c-1.548,1.125-3.517,1.97-5.205,1.125
			c-1.266-0.563-2.392-1.266-3.517-2.11c0-0.141,0-0.422,0-0.563c-1.407-0.985-2.954-1.407-3.939-3.236c0-0.141-0.703,0.141-0.985,0
			c0-0.141,0-0.422,0-0.563c-0.281-0.141-0.844,0.141-1.125,0c0-0.141,0-0.422,0-0.563c-0.141,0-0.422,0-0.563,0
			c0-0.141,0-0.422,0-0.563c-0.703,0.281-0.844-0.985-1.548-0.563c0-0.141,0-0.422,0-0.563c-0.141,0-0.422,0-0.563,0
			c0-0.141,0-0.422,0-0.563c-0.141,0-0.422,0-0.563,0c0-0.141,0-0.422,0-0.563c-0.141,0-0.422,0-0.563,0
			c-0.703-0.844-0.985-1.97-1.688-2.673c-0.141,0-0.422,0-0.563,0c0-0.141,0-0.422,0-0.563c-0.141,0-0.281,0-0.422,0
			c0-0.141,0-0.422,0-0.563c-0.703,0.281-0.985-0.844-1.688-0.563c0-0.141,0-0.422,0-0.563c-0.563-0.141-0.985,0.141-1.829-0.422
			c-0.422-0.422-1.266,0-1.97-0.141c0-0.141,0-0.422,0-0.563c-0.141,0-0.422,0-0.563,0c0-0.563,0.141-0.844,0.281-1.547
			c0.563-1.548,0.985-3.095,1.97-4.221c0.422-0.422,1.126-1.125,2.11-0.703c0.141-0.563,0.844-0.703,1.688-0.563
			c0-0.141,0-0.422,0-0.563c1.125-0.422,1.407-1.829,1.688-2.814c0.703-2.392,1.97-4.361,2.11-7.034c0,0,0.422,0,0.563,0
			c0.141-0.563-0.141-1.266,0.141-1.688c0.703-1.407,0.141-2.814,0.422-4.361c0.141,0,0.422,0,0.563,0
			c0.141-0.563,0.141-1.125,0-1.688c-0.141,0-0.422,0-0.563,0c0-0.141,0-0.422,0-0.563c-0.141,0-0.422,0-0.563,0
			c-0.141-0.281,0.141-0.844,0-1.125c-0.141,0-0.422,0-0.563,0c-0.563-1.126-0.844-2.392-1.688-3.236
			c-0.281-0.141-0.703-0.141-1.125,0c-0.281,0.141-0.422,0.563-0.563,0.563c-1.125,0-2.11,0.844-3.236,1.126
			c-0.422,0-0.844-0.141-1.125,0c0,0.141,0,0.422,0,0.563c-0.141,0-0.422,0-0.563,0c0,0.141,0,0.281,0,0.422
			c-0.141,0-0.563,0-0.563,0c-0.281,1.548-1.266,2.392-1.126,3.939c0.141,0.141-0.422,0.422-0.281,0.563
			c0.141,0.985-0.844,1.266-0.703,2.11c-0.141,0-0.422,0-0.563,0c-0.141,0.281,0.141,0.844,0,0.985
			c-1.126,0.844-2.392,2.392-2.673,3.939c-0.422,1.688,0,3.236-0.281,4.924c-0.141,1.407-0.844,2.392-1.97,2.673
			c-5.627,1.688-9.285-3.658-11.255-8.441c-1.688-4.361-5.065-7.878-6.753-12.38c-0.563-1.407-0.281-3.095-0.141-4.783
			c0.141-0.141,0.563-0.422,0.422-0.563c-0.141-0.985,0.422-1.548,0.844-2.11c0.703-0.703,1.97-0.563,3.095-1.126
			c0.422-0.281,1.266-0.281,1.688,0c1.548,0.844,2.251,2.954,3.799,3.658c1.97,0.844,4.643-0.281,4.643-2.11
			c-0.141-2.673-1.125-6.331,1.97-7.597c0-0.141,0-0.563,0-0.563c1.266-0.141,2.532-0.141,3.798,0c0,0,0,0.422,0,0.563
			c1.266,0,2.11,1.126,3.376,0.985c0.141,0,0.281,0.422,0.563,0.563c1.125,0.422,2.251-0.141,3.095-0.703
			c0.844-0.563,1.266-0.563,1.688-1.407c0.563-1.407,1.829-2.392,1.126-3.939c-0.563-1.548-1.829-2.814-2.532-4.361
			c-0.422-0.844,0-1.688-0.703-2.673c-0.141-0.281,0.141-0.844,0-1.126c-0.422-0.281-0.703-0.844-0.563-1.688
			c-0.141,0-0.422,0-0.563,0c-0.422-0.844-0.281-1.688-0.985-2.673c-0.141-0.281-0.141-0.844,0-1.126
			c0.422-0.281,0.281-0.985,0.703-1.548c1.688-2.251,2.954-4.783,5.768-5.487c0.703-0.141,1.407-0.422,2.251-0.563
			c0.281-0.141,0.703,0.281,1.125,0.422c0.703,0.141,1.407-0.141,2.11,0c0.281,0.141,0.281,0.422,0.563,0.563
			c0.985,0.281,1.688-0.281,2.954,0.422c0.985,0.563,2.532,0.422,3.517,0c0.422-0.141,1.548-1.126,2.251-1.688
			c0.844-0.563,2.11-1.97,3.376-2.532c0-0.141,0-0.422,0-0.563c0.141,0,0.422,0,0.563,0c0-0.141,0-0.422,0-0.563
			c0.141,0,0.422,0,0.563,0c0-0.141,0-0.422,0-0.563c0.141,0,0.422,0,0.563,0c0.281-1.688-0.141-3.095,0.281-4.924
			c0.844-3.376-0.141-6.753,1.688-9.989c0.422-0.703,0-1.688,0.141-2.673h0.563c0.07-1.192-0.069-2.418-0.122-3.593
			c-9.328-6.498-20.396-11.455-32.753-13.926c-30.173-6.035-63.789,8.575-81.192,28.527c-4.287,4.915-7.645,13.141-9.98,23.573
			c0.386,0.186,0.75,0.426,1.087,0.732c0.422,0.563,1.688,0.844,2.392,1.97c0,0.141,0.704-0.141,0.985,0c0,0.141,0,0.422,0,0.563
			c0.141,0,0.422,0,0.563,0c0,0.141,0,0.422,0,0.563c0.563-0.141,0.844,0.141,1.126,0.563c0,0.141,0,0.422,0,0.563
			c0.141,0,0.422,0,0.563,0c0.141,0.563-0.141,0.985,0.422,1.829c0.281,0.281,0,0.985,0.141,1.407c0.141,0,0.422,0,0.563,0
			c0,0.141,0,0.422,0,0.563c0.141,0,0.422,0,0.563,0c0,0.141,0,0.422,0,0.563c0.141,0,0.422,0,0.422,0
			c0.141,2.392-0.422,4.924,0.281,7.175c0.141,0.422,0.281,1.126,0.281,1.688c1.266-0.281,0.844,1.125,1.688,1.548
			c0.281,0.141,0.844-0.141,1.126,0c0,0.141,0,0.422,0,0.563c0.563,0.141,1.126-0.141,1.688,0c0,0.141,0,0.422,0,0.563
			c0.281,0.141,0.703-0.141,0.985,0c1.688,1.266,2.673,3.377,2.814,5.487c0,0,0.422,0,0.563,0c0.141,0.703-0.281,1.688,0.141,2.11
			c0.703,1.126,1.688,1.407,1.97,2.814c0.141,0,0.422,0,0.563,0c0,0.141,0,0.422,0,0.563c0.141,0,0.422,0,0.563,0
			c0,0.141,0,0.422,0,0.563c0.141,0,0.422,0,0.563,0c0.141,0.563-0.141,0.985,0.422,1.829c0.422,0.422,0,1.266,0.141,1.97
			c0.141,0.281,0.422,0.422,0.563,0.563c0.141,0.985,0.141,1.829,0,2.814c-0.141,0.141-0.422,0.281-0.563,0.563
			c-0.141,1.125,0.141,2.11-0.422,3.236c-0.281,0.422-0.281,1.125-0.141,1.688c0.141,0,0.422,0,0.563,0
			c0.281,0.985,0.844,2.392,2.11,2.11c0,0.141,0,0.422,0,0.563c0.281,0.141,0.844-0.141,0.985,0c0.985,1.266,2.11,1.407,3.236,2.673
			c1.266,1.547,3.095,2.954,5.205,3.939c0.422,0.141,1.126,0.141,1.548-0.141c0.704-0.563,1.266-1.407,1.126-2.673
			c0.141,0,0.422,0,0.563,0c0.141-0.422-0.141-1.125,0.141-1.407c0.422-0.563,0.281-1.266,0.422-1.829c0.141,0,0.422,0,0.563,0
			c0-0.141,0-0.422,0-0.563c0.141,0,0.422,0,0.563,0c-0.985-0.281-1.688-0.563-2.814-0.703c-0.703-0.141-0.985-1.548-2.11-1.407
			c-0.422-3.236-1.407-6.19-1.829-9.426c-0.141-0.844-0.281-1.688-0.422-2.673c-0.141-0.281-0.422-0.422-0.563-0.563
			c-0.141-1.407-0.141-2.954,0-4.361c0,0,0.422,0,0.563,0c0.141-0.281,0-0.703,0-1.126c2.954,0.844,6.19,2.532,6.894,6.049
			c0.281,1.688,1.548,3.236,2.954,4.361c0,0.141,0,0.422,0,0.563c0.703,0.281,1.266,0.703,1.829,1.688
			c0.141,0.281,0.563,0.281,0.985,0.422c1.266,0.281,1.266,1.548,1.407,2.251c0.563,1.97,0.141,4.221,0.985,5.909
			c1.407,3.236,3.939,5.627,5.909,8.723c1.688,2.392,3.095,5.346,6.472,5.065c0,0.141,0,0.422,0,0.563c2.11,0,4.08,0.141,6.05-0.844
			c1.266-0.563,2.392,0.281,3.376,1.407c0.141,0.141,0.703-0.141,0.985,0c3.095,1.548,6.472,0.985,9.848,1.126
			c0-0.141,0-0.422,0-0.563c0.281-0.141,0.844,0.141,1.125,0c0-0.141,0-0.422,0-0.563c2.11-0.563,3.658,0.844,5.487,1.688
			c0.563,0.141,1.125-0.141,1.688,0c0,0.141,0,0.422,0,0.563c0.141,0,0.422,0,0.563,0c0-0.141,0-0.422,0-0.563
			c0.281-0.141,0.703,0,1.125,0c-0.281-0.703,0.844-0.985,0.563-1.688c0.703,0.141,1.407-0.281,2.11-0.422
			c0.844-0.281,2.251-0.422,2.532,0c2.532,3.939,5.628,6.472,9.285,9.145c0.985,0.704,0.141,3.658,0.281,5.628c0,0,0.422,0,0.563,0
			c0.141,0.703,0.281,1.548-0.141,1.97c-0.422,0.703-0.281,1.266-0.422,1.829c-0.141,0-0.422,0-0.563,0
			c-0.422,0.844,0.281,1.548-0.422,2.814c-0.422,0.844-0.422,2.251,0,3.095c0.563,0.844,0.281,1.97,0.422,2.814
			c-0.141,0-0.422,0-0.563,0c-0.422,0.703,0,1.266-0.281,2.392c-0.703,1.688-0.703,4.08,0,5.768c0.455,1.099,0.869,2.218,1.31,3.319
			c19.976-6.109,32.863-17.138,40.883-29.972C318.141,295.355,317.707,295.002,317.174,294.825z"/>
		<path style="fill:#19B29E;" d="M325.497,220.475c-4.859-12.957-14.692-25.53-28.141-34.899c0.053,1.175,0.193,2.401,0.122,3.593
			h-0.563c-0.141,0.985,0.281,1.97-0.141,2.673c-1.829,3.236-0.844,6.612-1.688,9.989c-0.422,1.829,0,3.236-0.281,4.924
			c-0.141,0-0.422,0-0.563,0c0,0.141,0,0.422,0,0.563c-0.141,0-0.422,0-0.563,0c0,0.141,0,0.422,0,0.563c-0.141,0-0.422,0-0.563,0
			c0,0.141,0,0.422,0,0.563c-1.266,0.563-2.532,1.97-3.376,2.532c-0.703,0.563-1.829,1.548-2.251,1.688
			c-0.985,0.422-2.532,0.563-3.517,0c-1.266-0.703-1.97-0.141-2.954-0.422c-0.281-0.141-0.281-0.422-0.563-0.563
			c-0.703-0.141-1.407,0.141-2.11,0c-0.422-0.141-0.844-0.563-1.125-0.422c-0.844,0.141-1.548,0.422-2.251,0.563
			c-2.814,0.703-4.08,3.236-5.768,5.487c-0.422,0.563-0.281,1.266-0.703,1.548c-0.141,0.281-0.141,0.844,0,1.126
			c0.703,0.985,0.563,1.829,0.985,2.673c0.141,0,0.422,0,0.563,0c-0.141,0.844,0.141,1.407,0.563,1.688
			c0.141,0.281-0.141,0.844,0,1.126c0.703,0.985,0.281,1.829,0.703,2.673c0.703,1.548,1.97,2.814,2.532,4.361
			c0.703,1.548-0.563,2.532-1.126,3.939c-0.422,0.844-0.844,0.844-1.688,1.407c-0.844,0.563-1.97,1.125-3.095,0.703
			c-0.281-0.141-0.422-0.563-0.563-0.563c-1.266,0.141-2.11-0.985-3.376-0.985c0-0.141,0-0.563,0-0.563
			c-1.266-0.141-2.532-0.141-3.798,0c0,0,0,0.422,0,0.563c-3.095,1.266-2.11,4.924-1.97,7.597c0,1.829-2.673,2.954-4.643,2.11
			c-1.548-0.703-2.251-2.814-3.799-3.658c-0.422-0.281-1.266-0.281-1.688,0c-1.126,0.563-2.392,0.422-3.095,1.126
			c-0.422,0.563-0.985,1.126-0.844,2.11c0.141,0.141-0.281,0.422-0.422,0.563c-0.141,1.688-0.422,3.376,0.141,4.783
			c1.688,4.502,5.065,8.019,6.753,12.38c1.97,4.783,5.628,10.13,11.255,8.441c1.125-0.281,1.829-1.266,1.97-2.673
			c0.281-1.688-0.141-3.236,0.281-4.924c0.281-1.548,1.548-3.095,2.673-3.939c0.141-0.141-0.141-0.703,0-0.985
			c0.141,0,0.422,0,0.563,0c-0.141-0.844,0.844-1.125,0.703-2.11c-0.141-0.141,0.422-0.422,0.281-0.563
			c-0.141-1.548,0.844-2.392,1.126-3.939c0,0,0.422,0,0.563,0c0-0.141,0-0.281,0-0.422c0.141,0,0.422,0,0.563,0
			c0-0.141,0-0.422,0-0.563c0.281-0.141,0.703,0,1.125,0c1.126-0.281,2.11-1.126,3.236-1.126c0.141,0,0.281-0.422,0.563-0.563
			c0.422-0.141,0.844-0.141,1.125,0c0.844,0.844,1.125,2.11,1.688,3.236c0.141,0,0.422,0,0.563,0c0.141,0.281-0.141,0.844,0,1.125
			c0.141,0,0.422,0,0.563,0c0,0.141,0,0.422,0,0.563c0.141,0,0.422,0,0.563,0c0.141,0.563,0.141,1.125,0,1.688
			c-0.141,0-0.422,0-0.563,0c-0.281,1.548,0.281,2.954-0.422,4.361c-0.281,0.422,0,1.125-0.141,1.688c-0.141,0-0.563,0-0.563,0
			c-0.141,2.673-1.407,4.643-2.11,7.034c-0.281,0.985-0.563,2.392-1.688,2.814c0,0.141,0,0.422,0,0.563
			c-0.844-0.141-1.548,0-1.688,0.563c-0.985-0.422-1.688,0.281-2.11,0.703c-0.985,1.126-1.407,2.673-1.97,4.221
			c-0.141,0.703-0.281,0.985-0.281,1.547c0.141,0,0.422,0,0.563,0c0,0.141,0,0.422,0,0.563c0.703,0.141,1.548-0.281,1.97,0.141
			c0.844,0.563,1.266,0.281,1.829,0.422c0,0.141,0,0.422,0,0.563c0.703-0.281,0.985,0.844,1.688,0.563c0,0.141,0,0.422,0,0.563
			c0.141,0,0.281,0,0.422,0c0,0.141,0,0.422,0,0.563c0.141,0,0.422,0,0.563,0c0.703,0.704,0.985,1.829,1.688,2.673
			c0.141,0,0.422,0,0.563,0c0,0.141,0,0.422,0,0.563c0.141,0,0.422,0,0.563,0c0,0.141,0,0.422,0,0.563c0.141,0,0.422,0,0.563,0
			c0,0.141,0,0.422,0,0.563c0.703-0.422,0.844,0.844,1.548,0.563c0,0.141,0,0.422,0,0.563c0.141,0,0.422,0,0.563,0
			c0,0.141,0,0.422,0,0.563c0.281,0.141,0.844-0.141,1.125,0c0,0.141,0,0.422,0,0.563c0.281,0.141,0.985-0.141,0.985,0
			c0.985,1.829,2.532,2.251,3.939,3.236c0,0.141,0,0.422,0,0.563c1.126,0.844,2.251,1.547,3.517,2.11
			c1.688,0.844,3.658,0,5.205-1.125c1.829-1.407,3.799-2.392,5.768-2.954c3.236-0.844,6.753-0.563,10.27-0.141
			c0.703,0.141,1.407,0.422,2.11,0.422c1.266,0.141,2.11,1.407,3.236,1.97c0.533,0.178,0.966,0.531,1.394,0.921
			C335.153,269.206,330.923,234.943,325.497,220.475z M315.627,237.424c-0.985,3.377-5.065,2.673-7.738,4.08
			c-0.985,0.422-1.407,1.688-0.844,2.392c1.266,1.688,2.392,4.643,0.281,5.487c-1.266,0.422-3.095,0.563-4.221,0
			c-1.125-0.563-2.11-1.97-2.954-2.392c-2.392-1.266-4.783-2.673-7.034-3.939c-0.703-0.422-1.829-0.281-2.673-0.141
			c-0.281,0.141-0.281,0.422-0.563,0.563c-0.563,0.141-1.126,0.141-1.829,0.422c-0.844,0.422-1.97,0.281-3.095,0.141
			c0,0,0-0.422,0-0.563c-0.141,0-0.422,0-0.563,0c-1.688-2.251,0.563-3.939,1.548-6.05c0.141,0,0.422,0,0.563,0
			c-0.141-0.563,0.281-0.703,0.563-0.985c0.141,0,0.422,0,0.563,0c0-0.141,0-0.422,0-0.563c0.985,0.422,1.548-0.844,2.11-0.422
			c0.985,0.985,1.97,1.407,2.954,1.688c1.548,0.422,3.236-0.563,4.924-1.688c0.563-0.281,1.266-0.704,2.11-0.844
			c0.422,0,0.703-0.703,1.126-0.985c0.281-0.141,0.703,0.141,0.985,0c1.02-0.765,2.04-0.838,2.955-1.158
			c0.788,0.75,1.52,1.766,2.25,2.706c0.141,0.281,0.985,0.281,1.407,0.141c0-0.141,0-0.422,0-0.563c0.141,0,0.422,0,0.563,0
			c0.703-0.844,0.703-1.266,1.688-1.548c1.125-0.563,2.251-0.141,3.095,0.563c0.844,0.563,1.407,0.844,1.688,1.548
			c0.141,0.844,0.563,1.266,0.704,2.11C316.049,237.424,315.767,237.424,315.627,237.424z"/>
		<path style="fill:#A2E567;" d="M313.798,233.766c-0.844-0.703-1.97-1.125-3.095-0.563c-0.985,0.281-0.985,0.703-1.688,1.548
			c-0.141,0-0.422,0-0.563,0c0,0.141,0,0.422,0,0.563c-0.422,0.141-1.266,0.141-1.407-0.141c-0.731-0.94-1.462-1.956-2.25-2.706
			c-0.915,0.321-1.935,0.393-2.955,1.158c-0.281,0.141-0.703-0.141-0.985,0c-0.422,0.281-0.703,0.985-1.126,0.985
			c-0.844,0.141-1.548,0.563-2.11,0.844c-1.688,1.126-3.376,2.11-4.924,1.688c-0.985-0.281-1.97-0.703-2.954-1.688
			c-0.563-0.422-1.125,0.844-2.11,0.422c0,0.141,0,0.422,0,0.563c-0.141,0-0.422,0-0.563,0c-0.281,0.281-0.703,0.422-0.563,0.985
			c-0.141,0-0.422,0-0.563,0c-0.985,2.11-3.236,3.799-1.548,6.05c0.141,0,0.422,0,0.563,0c0,0.141,0,0.563,0,0.563
			c1.125,0.141,2.251,0.281,3.095-0.141c0.703-0.281,1.266-0.281,1.829-0.422c0.281-0.141,0.281-0.422,0.563-0.563
			c0.844-0.141,1.97-0.281,2.673,0.141c2.251,1.266,4.643,2.673,7.034,3.939c0.844,0.422,1.829,1.829,2.954,2.392
			c1.126,0.563,2.954,0.422,4.221,0c2.11-0.844,0.985-3.799-0.281-5.487c-0.563-0.703-0.141-1.97,0.844-2.392
			c2.673-1.407,6.753-0.703,7.738-4.08c0.141,0,0.422,0,0.563,0c-0.141-0.844-0.563-1.266-0.704-2.11
			C315.205,234.611,314.642,234.329,313.798,233.766z"/>
	</g>
	<path style="fill:#FC6B60;" d="M291.04,214.619c-2.622-3.821-6.433-6.965-10.958-8.192c-4.775-1.295-9.749-0.157-13.933,2.333
		c-4.38,2.606-7.948,6.449-10.852,10.594c-2.592,3.699-4.801,7.663-6.602,11.805c-1.309-2.144-2.703-4.244-4.139-6.301
		c-3.207-4.592-6.929-9.039-11.831-11.889c-4.583-2.665-10.24-3.966-15.403-2.308c-4.471,1.436-8.014,4.895-10.192,8.987
		c-5.504,10.337-1.633,22.316,3.45,31.983c4.74,9.014,11.065,17.196,18.522,24.128c7.503,6.975,16.168,12.718,25.564,16.807
		c1.14,0.496,2.289,0.969,3.448,1.418c0.201,0.078,0.368,0.04,0.489-0.06c0.16,0.185,0.419,0.269,0.686,0.092
		c8.356-5.527,15.617-12.622,21.425-20.781c5.772-8.108,10.096-17.267,12.603-26.903C295.976,236.109,297.36,223.828,291.04,214.619
		z"/>
	<g>
		<defs>
			<rect id="SVGID_1_" width="500" height="500"/>
		</defs>
		<clipPath id="SVGID_00000041982474330648630690000011060959479915806645_">
			<use xlink:href="#SVGID_1_"  style="overflow:visible;"/>
		</clipPath>
		<g style="clip-path:url(#SVGID_00000041982474330648630690000011060959479915806645_);">
			<path style="fill:#3C1B15;" d="M453.005,293.098c-1.118-0.574-30.958,4.34-41.643,4.971c-10.685,0.631-21.578-0.258-21.578-0.258
				s-28.855,4.008-30.283-2.377c-1.428-6.385,7.394-7.973,12.47-9.603c5.076-1.63,21.592-4.444,21.592-4.444
				s-36.773-11.835-43.872-13.599c-7.099-1.765-19.461-6.118-18.534-11.586c0.927-5.468,43.562,1.373,43.562,1.373l10.856,0.87
				l0.212-2.246c0,0-27.087-6.857-38.858-9.61c-11.771-2.753-18.467-7.136-16.159-12.543c2.308-5.407,58.536,8.891,58.536,8.891
				s-44.565-18.665-42.599-27.073c1.966-8.408,51.514,17.056,51.514,17.056s-24.122-20.874-19.206-24.941
				c4.916-4.067,37.968,22.339,37.968,22.339s45.217,27.477,48.187,29.945s126.652,35.892,126.652,35.892l-26.23,51.038
				L453.005,293.098z"/>
			<g>
				<path style="fill:#653630;" d="M342.229,256.389c-1.532-0.244-3.091-0.322-4.638-0.187c-1.184,0.103-3.015,0.2-3.295,1.667
					c-0.257,1.345,1.103,2.355,2.102,2.947c1.406,0.833,3.026,1.24,4.603,1.621c0.376,0.315,1.051,0.262,1.134-0.357
					c0.218-1.619,0.431-3.239,0.639-4.859C342.821,256.859,342.629,256.453,342.229,256.389z M336.653,257.771
					c-0.07-0.023-0.14-0.047-0.211-0.069c0.103-0.022,0.211-0.041,0.323-0.057C336.723,257.683,336.685,257.725,336.653,257.771z"/>
				<path style="fill:#653630;" d="M342.061,235.107c-1.885-0.285-3.831-0.503-5.741-0.46c-1.542,0.035-3.224,0.61-3.716,2.234
					c-0.519,1.715,1.122,2.951,2.361,3.794c1.559,1.061,3.347,1.743,5.212,2.015c0.524,0.077,0.845-0.324,0.821-0.73
					c0.252-0.038,0.477-0.205,0.541-0.532c0.356-1.829,0.712-3.659,1.067-5.488C342.676,235.582,342.442,235.164,342.061,235.107z
					 M340.971,236.372c0.038,0.005,0.076,0.01,0.115,0.015c-0.017,0.085-0.033,0.169-0.049,0.254
					C341.031,236.546,341.009,236.455,340.971,236.372z"/>
				<path style="fill:#653630;" d="M357.441,217.989c-1.454-0.638-2.966-1.17-4.516-1.523c-1.129-0.257-2.521-0.35-3.342,0.634
					c-0.965,1.157,0.233,2.324,1.029,3.157c1.063,1.113,2.319,2.028,3.678,2.744c0.106,0.056,0.209,0.082,0.307,0.085
					c0.003,0.004,0.006,0.007,0.009,0.011c0.319,0.36,0.897,0.163,1.102-0.196c0.736-1.293,1.415-2.614,2.038-3.965
					C357.897,218.607,357.802,218.148,357.441,217.989z"/>
				<path style="fill:#653630;" d="M369.609,289.611c-0.814-0.1-1.838,0.33-2.642,0.677c-0.996,0.241-1.945,0.604-2.842,1.098
					c-1.235,0.265-2.461,0.909-2.419,2.333c-0.432,1.553,1.59,2.753,2.94,2.939c2.151,0.296,4.49-0.164,6.57-0.699
					c0.27-0.069,0.54-0.418,0.487-0.708c-0.209-1.156-0.449-2.305-0.744-3.442C370.754,291.014,370.632,289.737,369.609,289.611z"/>
				<path style="fill:#653630;" d="M386.921,212.063l-1.673-0.784c-0.378-0.177-0.777-0.404-1.193-0.515
					c-0.591-0.381-1.201-0.735-1.83-1.055c-0.628-0.32-1.158,0.368-0.98,0.883c-0.437,0.407-0.516,1.181-0.194,1.733
					c0.535,0.917,1.484,1.724,2.325,2.443c0.416,0.447,0.842,0.885,1.259,1.329c0.182,0.194,0.393,0.241,0.584,0.194
					c0.4,0.302,0.83,0.566,1.318,0.271c0.446-0.269,0.823-0.762,1.198-1.12c0.414-0.396,1.058-0.82,1.279-1.364
					C389.504,212.878,387.688,212.423,386.921,212.063z"/>
			</g>
		</g>
		<g style="clip-path:url(#SVGID_00000041982474330648630690000011060959479915806645_);">
			<path style="fill:#C97368;" d="M380.016,437.704c-0.539-1.135-27.235-15.345-36.108-21.331
				c-8.874-5.985-16.99-13.305-16.99-13.305s-25.362-14.333-22.621-20.274c2.742-5.941,10.716-1.847,15.739-0.06
				c5.023,1.787,19.856,9.577,19.856,9.577s-22.036-31.729-26.606-37.441c-4.57-5.712-11.75-16.676-7.694-20.459
				c4.056-3.783,33.782,27.538,33.782,27.538l8.098,7.281l1.532-1.656c0,0-17.362-21.893-25.044-31.227
				c-7.682-9.334-10.342-16.882-5.225-19.777c5.117-2.895,41.117,42.602,41.117,42.602s-24.082-41.887-17.414-47.375
				c6.667-5.487,30.58,44.827,30.58,44.827s-6.495-31.231-0.12-31.478c6.375-0.247,16.609,40.801,16.609,40.801
				s19.25,49.285,20.111,53.049c0.861,3.764,78.852,105.411,78.852,105.411l-51.828,24.632L380.016,437.704z"/>
			<g>
				<path style="fill:#F6958D;" d="M314.276,341.282c-1.07-1.124-2.261-2.132-3.572-2.964c-1.003-0.637-2.517-1.671-3.63-0.676
					c-1.02,0.913-0.553,2.541-0.119,3.618c0.612,1.516,1.652,2.822,2.673,4.082c0.107,0.479,0.676,0.846,1.118,0.405
					c1.156-1.154,2.309-2.312,3.458-3.473C314.461,342.014,314.554,341.575,314.276,341.282z M309.006,338.996
					c-0.041-0.061-0.083-0.123-0.125-0.183c0.095,0.045,0.193,0.096,0.291,0.151C309.114,338.968,309.059,338.978,309.006,338.996z"
					/>
				<path style="fill:#F6958D;" d="M327.063,324.268c-1.325-1.371-2.739-2.726-4.283-3.851c-1.246-0.908-2.932-1.473-4.309-0.481
					c-1.454,1.048-0.9,3.026-0.427,4.448c0.595,1.79,1.602,3.417,2.918,4.765c0.37,0.379,0.868,0.255,1.096-0.082
					c0.223,0.123,0.503,0.127,0.753-0.095c1.393-1.238,2.786-2.475,4.18-3.713C327.262,325.019,327.33,324.545,327.063,324.268z
					 M325.428,324.612c0.027,0.027,0.055,0.054,0.082,0.081c-0.065,0.057-0.129,0.115-0.194,0.172
					C325.37,324.787,325.408,324.701,325.428,324.612z"/>
				<path style="fill:#F6958D;" d="M349.676,320.003c-0.768-1.39-1.647-2.731-2.664-3.952c-0.741-0.889-1.791-1.809-3.041-1.525
					c-1.469,0.334-1.226,1.989-1.099,3.133c0.169,1.53,0.612,3.019,1.257,4.414c0.05,0.109,0.117,0.192,0.192,0.254
					c0,0.005,0.001,0.009,0.001,0.014c0.035,0.48,0.614,0.675,0.995,0.513c1.369-0.581,2.711-1.218,4.026-1.913
					C349.663,320.771,349.866,320.348,349.676,320.003z"/>
				<path style="fill:#F6958D;" d="M315.863,384.303c-0.586-0.574-1.661-0.854-2.51-1.066c-0.938-0.413-1.912-0.701-2.925-0.853
					c-1.142-0.539-2.507-0.772-3.339,0.385c-1.287,0.972-0.408,3.153,0.552,4.12c1.53,1.542,3.667,2.596,5.645,3.434
					c0.256,0.109,0.683-0.005,0.817-0.267c0.536-1.045,1.042-2.104,1.499-3.187C315.922,386.113,316.6,385.025,315.863,384.303z"/>
				<path style="fill:#F6958D;" d="M376.699,333.192l-0.853-1.638c-0.193-0.37-0.372-0.792-0.636-1.134
					c-0.239-0.662-0.508-1.313-0.814-1.95c-0.305-0.636-1.144-0.41-1.314,0.107c-0.594,0.057-1.126,0.625-1.206,1.259
					c-0.132,1.053,0.133,2.271,0.365,3.353c0.059,0.607,0.132,1.214,0.194,1.821c0.027,0.265,0.166,0.43,0.346,0.509
					c0.134,0.483,0.316,0.954,0.883,1.016c0.518,0.057,1.117-0.106,1.632-0.163c0.57-0.064,1.338-0.009,1.844-0.307
					C378.257,335.407,377.091,333.943,376.699,333.192z"/>
			</g>
		</g>
		<g style="clip-path:url(#SVGID_00000041982474330648630690000011060959479915806645_);">
			<path style="fill:#F5B28E;" d="M431.861,117.685c-1.092,0.621-13.301,28.29-18.617,37.58c-5.317,9.29-12.02,17.923-12.02,17.923
				s-12.429,26.348-18.555,24.051c-6.126-2.297-2.63-10.551-1.218-15.692c1.412-5.141,8.091-20.507,8.091-20.507
				s-30.022,24.31-35.383,29.288c-5.361,4.978-15.767,12.944-19.838,9.178c-4.071-3.767,24.978-35.716,24.978-35.716l6.666-8.612
				l-1.764-1.406c0,0-20.557,18.925-29.3,27.273c-8.744,8.348-16.075,11.556-19.339,6.666c-3.264-4.89,39.463-44.139,39.463-44.139
				s-40.002,27.097-45.965,20.852c-5.963-6.245,42.457-33.795,42.457-33.795s-30.669,8.775-31.384,2.436
				c-0.716-6.34,39.469-19.565,39.469-19.565s47.736-22.823,51.426-23.959c3.691-1.136,99.325-86.391,99.325-86.391l28.378,49.876
				L431.861,117.685z"/>
			<g>
				<path style="fill:#E49E79;" d="M340.536,190.34c-1.043,1.149-1.96,2.412-2.694,3.781c-0.561,1.047-1.481,2.633-0.407,3.67
					c0.985,0.951,2.575,0.365,3.617-0.148c1.467-0.721,2.693-1.855,3.874-2.966c0.47-0.142,0.794-0.737,0.322-1.144
					c-1.236-1.068-2.475-2.132-3.718-3.193C341.253,190.102,340.808,190.04,340.536,190.34z M338.643,195.764
					c-0.058,0.046-0.116,0.091-0.173,0.138c0.038-0.098,0.081-0.199,0.13-0.302C338.608,195.658,338.622,195.712,338.643,195.764z"
					/>
				<path style="fill:#E49E79;" d="M322.628,178.839c-1.27,1.422-2.517,2.932-3.525,4.554c-0.814,1.31-1.253,3.033-0.163,4.333
					c1.152,1.373,3.084,0.675,4.467,0.099c1.741-0.725,3.289-1.849,4.538-3.26c0.351-0.397,0.191-0.885-0.162-1.087
					c0.106-0.231,0.09-0.512-0.15-0.744c-1.337-1.298-2.674-2.597-4.01-3.895C323.362,178.585,322.884,178.552,322.628,178.839z
					 M323.091,180.444c0.025-0.029,0.05-0.059,0.075-0.088c0.062,0.06,0.124,0.12,0.186,0.18
					C323.27,180.489,323.181,180.457,323.091,180.444z"/>
				<path style="fill:#E49E79;" d="M316.711,156.601c-1.33,0.868-2.602,1.843-3.745,2.947c-0.832,0.804-1.673,1.919-1.297,3.145
					c0.441,1.441,2.074,1.076,3.206,0.866c1.513-0.281,2.966-0.832,4.309-1.578c0.105-0.058,0.183-0.13,0.239-0.21
					c0.005-0.001,0.009-0.001,0.014-0.002c0.476-0.07,0.628-0.662,0.438-1.03c-0.68-1.323-1.414-2.614-2.204-3.874
					C317.478,156.557,317.041,156.386,316.711,156.601z"/>
				<path style="fill:#E49E79;" d="M383.324,185.592c-0.529,0.627-0.729,1.719-0.879,2.582c-0.343,0.965-0.558,1.959-0.635,2.98
					c-0.454,1.178-0.585,2.557,0.63,3.302c1.064,1.212,3.175,0.175,4.069-0.853c1.425-1.639,2.319-3.848,3.009-5.882
					c0.089-0.264-0.055-0.681-0.326-0.795c-1.082-0.458-2.175-0.884-3.288-1.26C385.125,185.401,383.989,184.804,383.324,185.592z"
					/>
				<path style="fill:#E49E79;" d="M327.876,128.681l-1.571,0.971c-0.355,0.219-0.763,0.429-1.084,0.717
					c-0.642,0.287-1.272,0.603-1.884,0.955c-0.612,0.351-0.325,1.171,0.203,1.303c0.101,0.589,0.706,1.077,1.345,1.11
					c1.06,0.054,2.255-0.299,3.317-0.61c0.601-0.104,1.201-0.22,1.801-0.327c0.262-0.046,0.416-0.197,0.482-0.382
					c0.472-0.17,0.928-0.386,0.948-0.955c0.019-0.521-0.188-1.106-0.283-1.616c-0.105-0.563-0.107-1.334-0.442-1.817
					C329.97,126.964,328.596,128.235,327.876,128.681z"/>
			</g>
		</g>
		<g style="clip-path:url(#SVGID_00000041982474330648630690000011060959479915806645_);">
			<path style="fill:#F4C790;" d="M41.219,202.126c1.17,0.46,30.367-7.42,40.935-9.118s21.496-1.905,21.496-1.905
				s28.309-6.879,30.369-0.669c2.061,6.21-6.558,8.674-11.445,10.804c-4.887,2.13-21.038,6.585-21.038,6.585
				s37.774,8.091,45.014,9.135c7.24,1.044,19.976,4.137,19.602,9.671c-0.374,5.534-43.481,2.998-43.481,2.998l-10.888,0.222
				l0.014,2.256c0,0,27.638,4.108,39.626,5.668c11.988,1.56,19.089,5.25,17.334,10.861c-1.755,5.611-59.132-2.982-59.132-2.982
				s46.211,14.106,45.097,22.669c-1.114,8.563-52.964-11.809-52.964-11.809s26.092,18.352,21.608,22.891
				c-4.483,4.539-40.015-18.422-40.015-18.422s-47.743-22.808-50.945-24.966c-3.202-2.158-129.611-23.022-129.611-23.022
				l20.984-53.409L41.219,202.126z"/>
			<g>
				<path style="fill:#E5B076;" d="M155.116,227.551c1.549,0.089,3.108,0.01,4.633-0.279c1.167-0.221,2.98-0.501,3.111-1.989
					c0.121-1.364-1.333-2.233-2.387-2.722c-1.483-0.688-3.135-0.931-4.742-1.151c-0.406-0.276-1.072-0.155-1.093,0.469
					c-0.055,1.633-0.104,3.266-0.149,4.898C154.48,227.143,154.712,227.528,155.116,227.551z M160.525,225.617
					c0.072,0.016,0.144,0.033,0.217,0.048c-0.1,0.032-0.206,0.062-0.316,0.089C160.465,225.712,160.498,225.666,160.525,225.617z"/>
				<path style="fill:#E5B076;" d="M157.415,248.71c1.904,0.094,3.862,0.117,5.758-0.118c1.53-0.189,3.147-0.93,3.473-2.595
					c0.345-1.758-1.412-2.823-2.729-3.538c-1.658-0.9-3.505-1.398-5.388-1.483c-0.529-0.024-0.808,0.407-0.744,0.809
					c-0.247,0.063-0.454,0.252-0.485,0.584c-0.171,1.856-0.341,3.712-0.512,5.567C156.756,248.299,157.031,248.691,157.415,248.71z
					 M158.373,247.342c-0.039-0.001-0.077-0.002-0.116-0.003c0.008-0.086,0.016-0.172,0.024-0.258
					C158.296,247.174,158.327,247.263,158.373,247.342z"/>
				<path style="fill:#E5B076;" d="M143.828,267.282c1.51,0.489,3.069,0.867,4.646,1.063c1.149,0.142,2.544,0.096,3.262-0.966
					c0.844-1.248-0.465-2.289-1.34-3.038c-1.169-1-2.51-1.785-3.935-2.362c-0.111-0.045-0.216-0.06-0.314-0.054
					c-0.003-0.003-0.007-0.006-0.01-0.009c-0.353-0.327-0.909-0.073-1.077,0.306c-0.603,1.36-1.146,2.742-1.63,4.149
					C143.313,266.713,143.453,267.161,143.828,267.282z"/>
				<path style="fill:#E5B076;" d="M124.545,197.24c0.82,0.018,1.796-0.512,2.561-0.938c0.966-0.34,1.875-0.796,2.717-1.377
					c1.202-0.387,2.357-1.151,2.173-2.564c0.275-1.589-1.858-2.58-3.22-2.63c-2.17-0.079-4.451,0.613-6.467,1.353
					c-0.261,0.096-0.495,0.47-0.414,0.753c0.323,1.129,0.678,2.248,1.085,3.35C123.265,195.958,123.514,197.217,124.545,197.24z"/>
				<path style="fill:#E5B076;" d="M115.09,276.132l1.743,0.612c0.393,0.138,0.813,0.324,1.239,0.393
					c0.627,0.319,1.268,0.611,1.927,0.866c0.657,0.255,1.116-0.482,0.886-0.976c0.395-0.448,0.395-1.227,0.019-1.743
					c-0.624-0.859-1.649-1.567-2.558-2.198c-0.459-0.403-0.926-0.796-1.386-1.196c-0.201-0.175-0.415-0.2-0.6-0.135
					c-0.428-0.261-0.883-0.48-1.339-0.138c-0.417,0.313-0.743,0.841-1.079,1.235c-0.372,0.436-0.971,0.922-1.136,1.485
					C112.439,275.58,114.291,275.851,115.09,276.132z"/>
			</g>
		</g>
		<g style="clip-path:url(#SVGID_00000041982474330648630690000011060959479915806645_);">
			<path style="fill:#B95223;" d="M302.236,50.195c-0.597,1.105,3.697,31.041,4.107,41.737c0.409,10.696-0.705,21.568-0.705,21.568
				s3.409,28.932-3.005,30.227c-6.413,1.295-7.818-7.558-9.342-12.667c-1.524-5.109-3.996-21.68-3.996-21.68
				s-12.595,36.52-14.506,43.581c-1.911,7.061-6.52,19.33-11.968,18.29c-5.448-1.04,2.276-43.525,2.276-43.525l1.094-10.835
				l-2.241-0.259c0,0-7.417,26.939-10.413,38.651c-2.996,11.712-7.517,18.315-12.875,15.895
				c-5.358-2.42,10.103-58.339,10.103-58.339s-19.585,44.169-27.95,42.028c-8.366-2.14,18.12-51.15,18.12-51.15
				s-21.369,23.684-25.333,18.685c-3.964-4.999,23.121-37.497,23.121-37.497S267.13,40.27,269.66,37.351
				c2.529-2.918,38.51-125.881,38.51-125.881l50.483,27.282L302.236,50.195z"/>
			<g>
				<path style="fill:#CA6D36;" d="M263.239,160.187c-0.276,1.527-0.386,3.084-0.283,4.633c0.079,1.186,0.138,3.018,1.599,3.329
					c1.339,0.285,2.378-1.054,2.99-2.04c0.862-1.389,1.302-3,1.716-4.568c0.323-0.369,0.283-1.045-0.333-1.141
					c-1.614-0.251-3.229-0.498-4.845-0.74C263.72,159.605,263.31,159.789,263.239,160.187z M264.505,165.79
					c-0.025,0.07-0.05,0.139-0.074,0.209c-0.02-0.103-0.036-0.212-0.05-0.325C264.419,165.719,264.46,165.758,264.505,165.79z"/>
				<path style="fill:#CA6D36;" d="M241.957,159.914c-0.324,1.879-0.583,3.82-0.579,5.73c0.003,1.542,0.543,3.236,2.156,3.762
					c1.704,0.555,2.973-1.061,3.842-2.281c1.093-1.537,1.811-3.31,2.123-5.169c0.088-0.522-0.307-0.852-0.713-0.836
					c-0.032-0.252-0.195-0.481-0.521-0.552c-1.822-0.394-3.643-0.787-5.465-1.181C242.445,159.309,242.023,159.534,241.957,159.914z
					 M243.199,161.03c0.006-0.038,0.011-0.076,0.017-0.114c0.084,0.018,0.169,0.036,0.253,0.055
					C243.375,160.973,243.283,160.993,243.199,161.03z"/>
				<path style="fill:#CA6D36;" d="M225.162,144.182c-0.668,1.44-1.231,2.941-1.616,4.483c-0.28,1.123-0.402,2.514,0.565,3.355
					c1.137,0.989,2.329-0.185,3.178-0.963c1.134-1.04,2.075-2.276,2.82-3.621c0.058-0.105,0.086-0.207,0.091-0.305
					c0.004-0.003,0.007-0.006,0.011-0.009c0.367-0.311,0.182-0.894-0.173-1.106c-1.277-0.762-2.584-1.469-3.921-2.119
					C225.79,143.739,225.328,143.825,225.162,144.182z"/>
				<path style="fill:#CA6D36;" d="M297.021,133.501c-0.117,0.812,0.292,1.845,0.622,2.656c0.221,1,0.563,1.957,1.039,2.864
					c0.239,1.24,0.858,2.479,2.283,2.467c1.544,0.465,2.786-1.532,3-2.878c0.341-2.145-0.07-4.493-0.562-6.583
					c-0.064-0.271-0.407-0.548-0.698-0.502c-1.16,0.185-2.314,0.402-3.457,0.672C298.448,132.386,297.168,132.481,297.021,133.501z"
					/>
				<path style="fill:#CA6D36;" d="M219.849,114.586l-0.818,1.656c-0.185,0.374-0.42,0.768-0.54,1.183
					c-0.393,0.583-0.759,1.185-1.093,1.808c-0.333,0.622,0.344,1.166,0.862,0.998c0.397,0.446,1.17,0.54,1.728,0.229
					c0.928-0.516,1.754-1.448,2.491-2.274c0.455-0.407,0.902-0.823,1.355-1.231c0.198-0.178,0.249-0.388,0.206-0.58
					c0.311-0.394,0.583-0.818,0.299-1.312c-0.26-0.452-0.745-0.839-1.095-1.221c-0.388-0.422-0.798-1.075-1.337-1.307
					C220.717,112.02,220.224,113.826,219.849,114.586z"/>
			</g>
		</g>
		<g style="clip-path:url(#SVGID_00000041982474330648630690000011060959479915806645_);">
			<path style="fill:#9C6035;" d="M229.546,463.658c0.236-1.234-12.88-28.484-16.494-38.559
				c-3.614-10.075-5.827-20.778-5.827-20.778s-11.969-26.56-6.245-29.728c5.725-3.168,9.732,4.85,12.725,9.262
				c2.993,4.412,10.343,19.468,10.343,19.468s1.003-38.618,0.698-45.926c-0.305-7.309,0.392-20.396,5.9-21.046
				c5.508-0.65,10.946,42.187,10.946,42.187l2.222,10.661l2.214-0.429c0,0-1.046-27.922-1.719-39.992
				c-0.672-12.07,1.648-19.729,7.486-19.036c5.838,0.692,7.948,58.672,7.948,58.672s5.363-48.017,13.985-48.498
				c8.622-0.48-1.863,54.233-1.863,54.233s13.238-29.023,18.525-25.451c5.286,3.572-10.746,42.721-10.746,42.721
				s-13.635,51.124-15.168,54.668c-1.532,3.545,1.216,131.634,1.216,131.634l-56.358-10.8L229.546,463.658z"/>
			<g>
				<path style="fill:#C88359;" d="M233.582,347.027c-0.197-1.539-0.561-3.057-1.126-4.503c-0.432-1.107-1.041-2.836-2.527-2.692
					c-1.363,0.132-1.949,1.722-2.236,2.847c-0.404,1.584-0.338,3.253-0.259,4.873c-0.197,0.45,0.045,1.082,0.661,0.988
					c1.615-0.247,3.229-0.498,4.842-0.754C233.298,347.727,233.634,347.428,233.582,347.027z M230.686,342.066
					c0.003-0.074,0.006-0.147,0.007-0.222c0.05,0.092,0.099,0.191,0.145,0.294C230.79,342.108,230.739,342.083,230.686,342.066z"/>
				<path style="fill:#C88359;" d="M253.957,340.874c-0.258-1.889-0.596-3.818-1.175-5.638c-0.467-1.469-1.493-2.922-3.19-2.937
					c-1.792-0.015-2.516,1.907-2.976,3.333c-0.579,1.795-0.73,3.702-0.467,5.568c0.074,0.525,0.549,0.72,0.932,0.583
					c0.107,0.231,0.331,0.4,0.663,0.369c1.855-0.174,3.711-0.347,5.566-0.521C253.674,341.598,254.009,341.256,253.957,340.874z
					 M252.436,340.184c0.006,0.038,0.012,0.076,0.018,0.114c-0.086,0.008-0.172,0.016-0.258,0.024
					C252.285,340.291,252.367,340.244,252.436,340.184z"/>
				<path style="fill:#C88359;" d="M274.712,350.813c0.203-1.575,0.288-3.176,0.19-4.762c-0.071-1.155-0.374-2.518-1.55-3.029
					c-1.382-0.6-2.165,0.878-2.74,1.876c-0.768,1.333-1.293,2.796-1.598,4.302c-0.024,0.117-0.02,0.224,0.005,0.318
					c-0.003,0.004-0.005,0.008-0.007,0.012c-0.256,0.407,0.096,0.907,0.499,1.002c1.448,0.342,2.906,0.622,4.378,0.839
					C274.247,351.424,274.661,351.204,274.712,350.813z"/>
				<path style="fill:#C88359;" d="M209.412,382.653c-0.133-0.81-0.834-1.671-1.393-2.345c-0.512-0.887-1.127-1.696-1.854-2.418
					c-0.602-1.11-1.565-2.105-2.92-1.664c-1.612,0.022-2.194,2.301-1.993,3.648c0.322,2.148,1.421,4.263,2.52,6.108
					c0.142,0.239,0.553,0.4,0.816,0.268c1.05-0.526,2.085-1.08,3.093-1.683C208.389,384.146,209.58,383.67,209.412,382.653z"/>
				<path style="fill:#C88359;" d="M288.698,377.432l0.281-1.826c0.064-0.412,0.169-0.859,0.159-1.29
					c0.199-0.675,0.367-1.359,0.497-2.053c0.13-0.693-0.68-1.008-1.123-0.692c-0.513-0.305-1.278-0.162-1.717,0.302
					c-0.729,0.771-1.237,1.909-1.69,2.919c-0.311,0.525-0.612,1.057-0.921,1.582c-0.135,0.23-0.12,0.445-0.022,0.615
					c-0.177,0.469-0.309,0.956,0.111,1.341c0.384,0.352,0.963,0.575,1.412,0.834c0.497,0.286,1.084,0.784,1.668,0.844
					C288.643,380.14,288.569,378.27,288.698,377.432z"/>
			</g>
		</g>
		<g style="clip-path:url(#SVGID_00000041982474330648630690000011060959479915806645_);">
			<path style="fill:#CE824E;" d="M139.403,61.715c0.403,1.19,25.249,18.432,33.359,25.416c8.111,6.984,15.313,15.205,15.313,15.205
				s23.508,17.207,20.089,22.785c-3.419,5.578-10.859,0.578-15.638-1.785c-4.779-2.363-18.597-11.839-18.597-11.839
				s18.165,34.093,22.034,40.301c3.869,6.208,9.714,17.939,5.242,21.22c-4.471,3.281-30.322-31.308-30.322-31.308l-7.189-8.18
				l-1.715,1.465c0,0,14.676,23.777,21.211,33.947c6.535,10.17,8.292,17.977,2.871,20.253c-5.421,2.276-35.84-47.128-35.84-47.128
				s19.006,44.421,11.742,49.089c-7.264,4.668-25.115-48.103-25.115-48.103s2.79,31.777-3.57,31.275
				c-6.36-0.502-11.712-42.467-11.712-42.467s-13.34-51.201-13.755-55.041C107.398,72.983,41.86-37.104,41.86-37.104l54.358-18.388
				L139.403,61.715z"/>
			<g>
				<path style="fill:#EFA573;" d="M193.389,165.177c0.93,1.242,1.995,2.382,3.2,3.363c0.922,0.75,2.304,1.955,3.526,1.096
					c1.12-0.787,0.847-2.459,0.542-3.579c-0.43-1.577-1.309-2.997-2.177-4.367c-0.051-0.488-0.572-0.919-1.063-0.533
					c-1.283,1.011-2.564,2.025-3.841,3.044C193.291,164.428,193.146,164.853,193.389,165.177z M198.354,168.066
					c0.034,0.066,0.068,0.131,0.103,0.197c-0.089-0.056-0.18-0.118-0.271-0.184C198.243,168.08,198.299,168.077,198.354,168.066z"/>
				<path style="fill:#EFA573;" d="M178.696,180.575c1.155,1.517,2.4,3.028,3.802,4.326c1.131,1.048,2.74,1.807,4.223,0.983
					c1.567-0.87,1.248-2.9,0.946-4.367c-0.381-1.847-1.19-3.581-2.339-5.074c-0.323-0.42-0.833-0.355-1.098-0.047
					c-0.207-0.148-0.485-0.185-0.759,0.006c-1.529,1.066-3.057,2.132-4.586,3.198C178.585,179.806,178.462,180.268,178.696,180.575z
					 M180.359,180.425c-0.024-0.03-0.048-0.06-0.072-0.09c0.071-0.049,0.142-0.099,0.212-0.148
					C180.437,180.258,180.389,180.339,180.359,180.425z"/>
				<path style="fill:#EFA573;" d="M155.738,182.16c0.6,1.47,1.315,2.905,2.182,4.237c0.632,0.97,1.566,2.007,2.842,1.871
					c1.498-0.159,1.45-1.831,1.459-2.983c0.011-1.539-0.253-3.07-0.731-4.531c-0.037-0.114-0.093-0.204-0.161-0.274
					c0-0.005,0-0.009,0.001-0.014c0.022-0.481-0.531-0.742-0.928-0.626c-1.428,0.416-2.835,0.892-4.223,1.428
					C155.841,181.399,155.589,181.795,155.738,182.16z"/>
				<path style="fill:#EFA573;" d="M196.854,122.266c0.515,0.639,1.55,1.043,2.368,1.353c0.883,0.52,1.817,0.92,2.805,1.19
					c1.071,0.669,2.4,1.06,3.361,0.009c1.392-0.814,0.775-3.084-0.065-4.157c-1.339-1.71-3.338-3.008-5.204-4.072
					c-0.242-0.138-0.679-0.075-0.843,0.169c-0.655,0.975-1.281,1.967-1.862,2.989C197.009,120.462,196.207,121.464,196.854,122.266z
					"/>
				<path style="fill:#EFA573;" d="M130.447,165.895l0.655,1.727c0.148,0.39,0.277,0.831,0.498,1.201
					c0.16,0.685,0.351,1.363,0.58,2.031c0.229,0.667,1.088,0.542,1.318,0.048c0.597,0.013,1.192-0.489,1.345-1.109
					c0.254-1.031,0.134-2.271,0.031-3.373c0.012-0.61,0.012-1.221,0.021-1.831c0.004-0.266-0.115-0.446-0.284-0.546
					c-0.077-0.496-0.202-0.984-0.758-1.113c-0.508-0.117-1.121-0.026-1.64-0.029c-0.573-0.004-1.33-0.148-1.868,0.089
					C129.16,163.513,130.146,165.103,130.447,165.895z"/>
			</g>
		</g>
		<g style="clip-path:url(#SVGID_00000041982474330648630690000011060959479915806645_);">
			<path style="fill:#CFA767;" d="M78.265,367.254c1.143-0.522,15.752-27.002,21.869-35.785
				c6.118-8.783,13.558-16.789,13.558-16.789s14.711-25.145,20.61-22.315c5.899,2.83,1.686,10.743-0.175,15.738
				s-9.874,19.71-9.874,19.71s32.056-21.559,37.835-26.042c5.78-4.484,16.85-11.499,20.572-7.386
				c3.722,4.112-28.041,33.366-28.041,33.366l-7.402,7.988l1.632,1.557c0,0,22.151-17.032,31.599-24.574
				c9.448-7.542,17.034-10.088,19.853-4.929c2.819,5.159-43.213,40.474-43.213,40.474s42.243-23.451,47.63-16.703
				c5.387,6.749-45.28,29.905-45.28,29.905s31.325-6.027,31.477,0.351c0.152,6.378-41.045,15.996-41.045,15.996
				s-49.568,18.509-53.345,19.315c-3.777,0.805-106.58,77.264-106.58,77.264l-23.853-52.191L78.265,367.254z"/>
			<g>
				<path style="fill:#F6C682;" d="M175.661,302.965c1.14-1.052,2.166-2.229,3.018-3.527c0.652-0.994,1.709-2.492,0.73-3.62
					c-0.897-1.034-2.533-0.591-3.616-0.173c-1.525,0.589-2.847,1.609-4.122,2.612c-0.48,0.1-0.856,0.664-0.422,1.112
					c1.137,1.173,2.277,2.343,3.421,3.509C174.926,303.139,175.363,303.239,175.661,302.965z M178.026,297.73
					c0.062-0.04,0.124-0.081,0.185-0.122c-0.046,0.095-0.099,0.191-0.156,0.289C178.052,297.839,178.042,297.783,178.026,297.73z"/>
				<path style="fill:#F6C682;" d="M192.481,316.005c1.39-1.305,2.766-2.698,3.914-4.224c0.927-1.233,1.517-2.91,0.545-4.301
					c-1.026-1.469-3.012-0.945-4.441-0.494c-1.799,0.568-3.44,1.55-4.809,2.846c-0.385,0.364-0.268,0.865,0.065,1.097
					c-0.126,0.221-0.134,0.502,0.083,0.754c1.217,1.412,2.433,2.823,3.65,4.235C191.727,316.194,192.2,316.269,192.481,316.005z
					 M192.162,314.366c-0.028,0.027-0.055,0.054-0.083,0.081c-0.056-0.065-0.113-0.131-0.169-0.196
					C191.988,314.305,192.073,314.344,192.162,314.366z"/>
				<path style="fill:#F6C682;" d="M196.407,338.68c1.401-0.747,2.755-1.606,3.991-2.604c0.9-0.728,1.836-1.764,1.571-3.018
					c-0.312-1.474-1.97-1.255-3.116-1.146c-1.532,0.146-3.028,0.566-4.432,1.191c-0.109,0.049-0.194,0.114-0.256,0.188
					c-0.005,0-0.009,0.001-0.014,0.001c-0.48,0.027-0.684,0.604-0.528,0.987c0.56,1.378,1.177,2.729,1.853,4.054
					C195.639,338.655,196.059,338.865,196.407,338.68z"/>
				<path style="fill:#F6C682;" d="M132.62,303.908c0.583-0.578,0.879-1.648,1.104-2.494c0.427-0.931,0.73-1.902,0.896-2.912
					c0.556-1.134,0.809-2.495-0.335-3.344c-0.952-1.301-3.147-0.456-4.128,0.49c-1.564,1.507-2.651,3.628-3.518,5.593
					c-0.112,0.255-0.006,0.683,0.254,0.821c1.037,0.552,2.088,1.073,3.164,1.546C130.81,303.939,131.888,304.634,132.62,303.908z"/>
				<path style="fill:#F6C682;" d="M182.815,365.503l1.651-0.828c0.373-0.187,0.798-0.36,1.143-0.618
					c0.665-0.229,1.32-0.488,1.962-0.785c0.64-0.296,0.428-1.138-0.087-1.316c-0.049-0.595-0.608-1.136-1.241-1.225
					c-1.051-0.148-2.273,0.099-3.358,0.314c-0.608,0.05-1.216,0.113-1.823,0.166c-0.265,0.023-0.432,0.16-0.514,0.338
					c-0.485,0.127-0.959,0.302-1.029,0.867c-0.065,0.517,0.089,1.118,0.139,1.634c0.055,0.57-0.011,1.338,0.279,1.849
					C180.577,367.027,182.058,365.883,182.815,365.503z"/>
			</g>
		</g>
	</g>
</g>
</svg>
